<?xml version="1.0" encoding="utf-8" ?>
<svg xmlns="http://www.w3.org/2000/svg" xmlns:xlink="http://www.w3.org/1999/xlink" width="690" height="754">
	<path fill="#00EBAA" d="M445.968 207.058C457.305 204.789 469.044 202.992 480.608 202.448C519.319 200.627 564.353 209.072 597.018 230.722C598.56 231.744 600.762 232.934 602.035 234.247C602.012 235.217 602.547 235.831 603.056 236.611L603.31 236.994L603.14 237.425C600.373 237.25 596.278 233.652 593.778 232.16C585.671 227.323 577.023 222.441 568.369 218.669C555.168 212.914 511.103 205.085 496.724 206.076C490.87 206.479 491.669 213.878 488.179 217.668C487.788 218.093 487.551 218.316 487.286 218.856C487.024 219.391 487.3 219.71 487.475 220.243C488.523 221.407 489.579 221.842 491.02 222.402Q479.35 221.972 467.739 223.218C464.151 223.592 460.539 224.33 456.962 224.62C451.346 225.703 445.942 227.321 440.529 229.149C439.585 228.422 438.541 228.501 437.507 227.931C436.46 227.082 435.659 226.448 435.039 225.236C435.118 223.642 436.156 223.055 436.732 221.658C437.645 219.441 437.86 216.925 438.796 214.702C439.354 213.374 440.318 213.198 441.52 212.634C443.486 211.712 446.425 210.6 447.225 208.38C446.88 207.657 446.67 207.444 445.968 207.058ZM437.507 227.931C438.541 228.501 439.585 228.422 440.529 229.149C445.942 227.321 451.346 225.703 456.962 224.62C455.815 223.191 455.186 222.879 453.375 222.693C449.694 222.316 441.946 223.101 439.006 225.523C438.227 226.166 437.903 227.03 437.507 227.931Z"/>
	<path fill="#00EBAA" fill-opacity="0.98823529" d="M437.507 227.931C437.903 227.03 438.227 226.166 439.006 225.523C441.946 223.101 449.694 222.316 453.375 222.693C455.186 222.879 455.815 223.191 456.962 224.62C451.346 225.703 445.942 227.321 440.529 229.149C439.585 228.422 438.541 228.501 437.507 227.931Z"/>
	<defs>
		<linearGradient id="gradient_0" gradientUnits="userSpaceOnUse" x1="521.83771" y1="78.514282" x2="602.13434" y2="79.582115">
			<stop offset="0" stop-color="#00F5C5"/>
			<stop offset="1" stop-color="#00B3FF"/>
		</linearGradient>
	</defs>
	<path fill="url(#gradient_0)" d="M525.028 11.4588C541.798 11.3058 588.434 10.0037 600.783 21.6813C603.174 23.9422 603.822 27.1506 603.827 30.3175C603.841 38.255 601.104 46.1571 598.551 53.5859C589.517 79.8617 575.431 106.727 555.403 126.359C550.428 131.236 544.377 135.852 538.629 139.774C535.3 142.045 531.78 144.114 528.588 146.571C527.07 145.452 525.748 144.268 524.407 142.947Q524.088 141.917 523.836 140.868C522.455 135.122 523.844 128.654 523.671 122.787C523.553 118.767 523.116 114.758 522.993 110.735C522.772 103.501 523.063 96.242 522.944 89.0022C522.865 84.1266 522.338 79.2756 522.231 74.4041C522.054 66.3737 522.356 58.349 522.28 50.3205C522.2 41.7055 522.298 33.2577 522.655 24.6565C522.767 21.9463 522.611 18.9162 523.045 16.2503C523.161 15.542 523.553 14.9838 523.921 14.3818C524.475 13.4749 524.792 12.8136 524.98 11.7662C524.998 11.6642 525.012 11.5613 525.028 11.4588Z"/>
	<defs>
		<linearGradient id="gradient_1" gradientUnits="userSpaceOnUse" x1="482.08246" y1="465.15536" x2="667.47803" y2="469.78452">
			<stop offset="0" stop-color="#00EADA"/>
			<stop offset="1" stop-color="#00A8FF"/>
		</linearGradient>
	</defs>
	<path fill="url(#gradient_1)" d="M491.02 222.402C489.579 221.842 488.523 221.407 487.475 220.243C487.3 219.71 487.024 219.391 487.286 218.856C487.551 218.316 487.788 218.093 488.179 217.668C491.669 213.878 490.87 206.479 496.724 206.076C511.103 205.085 555.168 212.914 568.369 218.669C577.023 222.441 585.671 227.323 593.778 232.16C596.278 233.652 600.373 237.25 603.14 237.425L603.31 236.994L603.056 236.611C602.547 235.831 602.012 235.217 602.035 234.247C606.69 237.015 610.849 240.432 614.993 243.896Q617.234 245.788 619.4 247.765Q621.566 249.743 623.654 251.802Q625.742 253.862 627.748 256Q629.755 258.138 631.678 260.353Q633.601 262.567 635.437 264.854Q637.273 267.141 639.019 269.497Q640.766 271.853 642.419 274.275Q644.073 276.697 645.633 279.18Q647.192 281.664 648.654 284.206Q650.117 286.748 651.479 289.345Q652.842 291.942 654.104 294.589Q655.366 297.236 656.524 299.931Q657.683 302.625 658.737 305.361Q659.791 308.098 660.738 310.874Q661.685 313.649 662.524 316.459Q663.364 319.269 664.094 322.109C668.261 338.493 670.826 356.454 670.693 373.373C670.628 381.639 669.319 389.717 668.449 397.911C665.234 428.198 658.177 457.399 649.313 486.482Q641.865 511.622 631.91 535.878Q625.047 551.857 617.185 567.369Q609.323 582.881 600.493 597.863C596.995 603.741 593.51 610.13 589.413 615.577C586.388 620.692 567.676 647.786 564 650.599Q560.551 655.443 556.755 660.021C547.429 670.382 504.077 719.029 494.432 720.419L493.717 720.588C493.34 720.193 492.954 719.842 492.535 719.492C489.688 719.643 486.66 723.199 484.216 724.67C482.775 725.538 480.959 726.116 479.283 725.719C478.002 723.999 479.35 721.199 479.384 719.22C479.448 715.488 478.234 711.536 478.759 707.803C479.111 705.307 482.817 704.325 484.673 702.94C485.186 700.112 482.331 698.36 481.873 695.794C481.356 692.905 481.156 690.053 481.103 687.123L481.427 686.542C482.932 683.798 482.77 682.593 481.926 679.674C483.982 678.043 485.921 675.973 487.882 674.205Q496.769 666.296 505.246 657.948Q521.946 641.645 537.27 624.044Q552.595 606.443 566.444 587.659C572.823 578.981 578.584 569.814 584.781 560.997C587.637 554.837 591.681 548.489 595.547 542.886C599.543 534.626 604.288 526.765 608.227 518.461C623.816 485.601 634.135 451.19 637.149 414.867C641.506 362.36 634.368 319.552 599.562 278.609C576.688 251.701 545.35 231.643 510.466 224.742C504.033 223.469 497.548 222.93 491.02 222.402ZM564.505 646.526C561.432 648.269 556.478 654.292 555.569 657.742C555.441 658.23 555.308 658.851 555.626 659.274C555.956 659.711 556.268 659.815 556.755 660.021Q560.551 655.443 564 650.599C567.676 647.786 586.388 620.692 589.413 615.577L588.851 614.754C585.195 615.812 575.64 632.842 572.847 636.508C570.424 639.689 566.843 641.962 564.925 645.567C564.722 645.949 564.678 646.097 564.505 646.526Z"/>
	<path fill="#0BCEEA" d="M595.547 542.886C596.092 544.322 594.796 548.005 594.203 549.391C593.161 551.829 588.186 559.98 585.847 560.883C585.533 561.004 585.114 560.997 584.781 560.997C587.637 554.837 591.681 548.489 595.547 542.886Z"/>
	<path fill="#0BCEEA" fill-opacity="0.98823529" d="M564.505 646.526C564.678 646.097 564.722 645.949 564.925 645.567C566.843 641.962 570.424 639.689 572.847 636.508C575.64 632.842 585.195 615.812 588.851 614.754L589.413 615.577C586.388 620.692 567.676 647.786 564 650.599Q560.551 655.443 556.755 660.021C556.268 659.815 555.956 659.711 555.626 659.274C555.308 658.851 555.441 658.23 555.569 657.742C556.478 654.292 561.432 648.269 564.505 646.526Z"/>
	<path fill="#00FE00" d="M489.671 17.4042C500.97 13.8339 513.304 12.8288 525.028 11.4588C525.012 11.5613 524.998 11.6642 524.98 11.7662C524.792 12.8136 524.475 13.4749 523.921 14.3818C523.553 14.9838 523.161 15.542 523.045 16.2503C522.611 18.9162 522.767 21.9463 522.655 24.6565C522.298 33.2577 522.2 41.7055 522.28 50.3205C522.356 58.349 522.054 66.3737 522.231 74.4041C522.338 79.2756 522.865 84.1266 522.944 89.0022C523.063 96.242 522.772 103.501 522.993 110.735C523.116 114.758 523.553 118.767 523.671 122.787C523.844 128.654 522.455 135.122 523.836 140.868Q524.088 141.917 524.407 142.947C525.748 144.268 527.07 145.452 528.588 146.571C518.861 153.127 506.892 158.121 495.526 161.02Q480.591 165.572 465.319 168.814C437.548 174.584 408.1 178.084 382.067 189.901C375.394 192.93 368.744 196.458 362.567 200.409C358.365 203.098 354.36 206.082 350.132 208.736C349.082 209.394 347.615 210.536 346.388 210.425C345.908 209.961 345.582 209.561 345.39 208.919C343.569 202.819 345.792 194.775 346.705 188.594C347.594 182.575 348.021 176.464 349.139 170.484C352.793 150.946 360.033 130.756 369.286 113.187C388.193 77.2869 419.367 46.6772 456.223 29.5137C467.128 24.4353 478.215 20.9475 489.671 17.4042ZM489.671 17.4042C489.7 24.1309 483.816 25.0739 484.408 28.4852C486.256 29.7898 491.202 28.7056 492.071 30.576C491.606 35.3871 491.164 40.3329 490.482 45.1146C490.062 48.0644 489.403 50.9901 489.101 53.9557C488.275 62.0593 488.323 70.4589 488.079 78.6056C487.92 83.9515 487.535 89.5217 488.077 94.845L491.191 98.2014C489.483 106.973 479.019 117.698 484.497 126.027C485.354 127.33 486.43 128.426 487.527 129.522Q487.77 137.648 487.573 145.775C488.941 147.065 490.338 148.323 491.561 149.753C489.066 151.34 483.288 153.043 482.215 155.473C482.307 156.617 482.476 157.329 483.383 158.101C484.25 158.84 485.427 159.431 486.588 159.217C486.734 159.19 486.873 159.133 487.016 159.092L487.114 158.625C486.415 158.24 485.723 157.887 485.007 157.537C484.155 157.121 483.44 156.511 483.124 155.599C482.916 154.998 483.138 154.815 483.363 154.268C484.532 153.397 485.998 153.104 487.442 153.33C487.914 153.404 488.257 153.596 488.648 153.855C489.059 154.755 488.848 155.642 488.739 156.59C488.97 157.065 488.959 157.368 489.499 157.553C491.646 158.288 493.245 157.033 495.055 159.037Q495.307 160.025 495.526 161.02C506.892 158.121 518.861 153.127 528.588 146.571C527.07 145.452 525.748 144.268 524.407 142.947Q524.088 141.917 523.836 140.868C522.455 135.122 523.844 128.654 523.671 122.787C523.553 118.767 523.116 114.758 522.993 110.735C522.772 103.501 523.063 96.242 522.944 89.0022C522.865 84.1266 522.338 79.2756 522.231 74.4041C522.054 66.3737 522.356 58.349 522.28 50.3205C522.2 41.7055 522.298 33.2577 522.655 24.6565C522.767 21.9463 522.611 18.9162 523.045 16.2503C523.161 15.542 523.553 14.9838 523.921 14.3818C524.475 13.4749 524.792 12.8136 524.98 11.7662C524.998 11.6642 525.012 11.5613 525.028 11.4588C513.304 12.8288 500.97 13.8339 489.671 17.4042Z"/>
	<defs>
		<linearGradient id="gradient_2" gradientUnits="userSpaceOnUse" x1="482.77161" y1="86.276894" x2="525.76935" y2="85.483612">
			<stop offset="0" stop-color="#00FF4F" stop-opacity="0.98823529"/>
			<stop offset="1" stop-color="#00E8C3"/>
		</linearGradient>
	</defs>
	<path fill="url(#gradient_2)" d="M489.671 17.4042C500.97 13.8339 513.304 12.8288 525.028 11.4588C525.012 11.5613 524.998 11.6642 524.98 11.7662C524.792 12.8136 524.475 13.4749 523.921 14.3818C523.553 14.9838 523.161 15.542 523.045 16.2503C522.611 18.9162 522.767 21.9463 522.655 24.6565C522.298 33.2577 522.2 41.7055 522.28 50.3205C522.356 58.349 522.054 66.3737 522.231 74.4041C522.338 79.2756 522.865 84.1266 522.944 89.0022C523.063 96.242 522.772 103.501 522.993 110.735C523.116 114.758 523.553 118.767 523.671 122.787C523.844 128.654 522.455 135.122 523.836 140.868Q524.088 141.917 524.407 142.947C525.748 144.268 527.07 145.452 528.588 146.571C518.861 153.127 506.892 158.121 495.526 161.02Q495.307 160.025 495.055 159.037C493.245 157.033 491.646 158.288 489.499 157.553C488.959 157.368 488.97 157.065 488.739 156.59C488.848 155.642 489.059 154.755 488.648 153.855C488.257 153.596 487.914 153.404 487.442 153.33C485.998 153.104 484.532 153.397 483.363 154.268C483.138 154.815 482.916 154.998 483.124 155.599C483.44 156.511 484.155 157.121 485.007 157.537C485.723 157.887 486.415 158.24 487.114 158.625L487.016 159.092C486.873 159.133 486.734 159.19 486.588 159.217C485.427 159.431 484.25 158.84 483.383 158.101C482.476 157.329 482.307 156.617 482.215 155.473C483.288 153.043 489.066 151.34 491.561 149.753C490.338 148.323 488.941 147.065 487.573 145.775Q487.77 137.648 487.527 129.522C486.43 128.426 485.354 127.33 484.497 126.027C479.019 117.698 489.483 106.973 491.191 98.2014L488.077 94.845C487.535 89.5217 487.92 83.9515 488.079 78.6056C488.323 70.4589 488.275 62.0593 489.101 53.9557C489.403 50.9901 490.062 48.0644 490.482 45.1146C491.164 40.3329 491.606 35.3871 492.071 30.576C491.202 28.7056 486.256 29.7898 484.408 28.4852C483.816 25.0739 489.7 24.1309 489.671 17.4042Z"/>
	<path fill="#00EBAA" d="M408.659 701.622C412.515 705.641 422.357 707.801 427.754 708.202C450.722 709.908 465.987 693.34 481.926 679.674C482.77 682.593 482.932 683.798 481.427 686.542L481.103 687.123C481.156 690.053 481.356 692.905 481.873 695.794C482.331 698.36 485.186 700.112 484.673 702.94C482.817 704.325 479.111 705.307 478.759 707.803C478.234 711.536 479.448 715.488 479.384 719.22C479.35 721.199 478.002 723.999 479.283 725.719C480.959 726.116 482.775 725.538 484.216 724.67C486.66 723.199 489.688 719.643 492.535 719.492C492.954 719.842 493.34 720.193 493.717 720.588L494.432 720.419C491.472 725.095 475.014 733.209 469.279 735.529Q464.299 737.531 459.059 738.69C448.907 740.927 439.011 740.448 428.824 739.07C426.751 738.789 423.355 738.535 421.596 737.366C421.482 737.29 421.385 737.19 421.28 737.102L421.233 736.334C416.434 730.242 415.33 731.469 409.899 727.764C405.556 724.802 399.563 712.018 398.871 706.794C398.638 705.032 398.77 703.706 399.882 702.298L400.023 702.443C400.645 702.377 400.403 702.32 400.863 702.507Q402.179 703.035 403.57 703.307C405.546 703.687 406.747 702.987 408.317 701.87L408.659 701.622Z"/>
	<defs>
		<linearGradient id="gradient_3" gradientUnits="userSpaceOnUse" x1="388.54379" y1="447.17722" x2="607.66797" y2="451.08734">
			<stop offset="0" stop-color="#00FF80"/>
			<stop offset="1" stop-color="#00CCFD"/>
		</linearGradient>
	</defs>
	<path fill="url(#gradient_3)" d="M390.838 266.236C405.253 259.958 419.661 253.283 434.596 248.331C466.357 237.799 500.302 236.33 531.801 248.686C562.802 260.848 584.631 281.936 597.894 312.549C620.244 364.136 607.849 429.507 589.053 480.387C586.68 486.524 584.41 492.751 581.536 498.675C576.364 510.288 570.832 521.719 564.055 532.505C555.166 548.716 543.512 563.916 531.506 577.935C518.11 593.576 502.914 607.973 487.582 621.693C480.011 628.468 472.436 635.411 464.116 641.268C456.534 646.605 448.057 651.648 439.127 654.258C433.732 655.835 427.753 656.778 422.161 657.336C417.754 657.73 413.349 657.324 408.957 656.938C406.928 656.637 404.871 656.409 402.908 655.796L402.127 654.691C400.531 654.329 398.982 653.747 397.376 653.451C396.688 653.324 395.85 653.284 395.286 652.822C394.397 652.092 393.076 650.519 392.855 649.417L393.214 649.093L394.064 649.357L394.317 649.132L392.026 647.41C390.504 646.282 389.61 645.322 388.546 643.777C387.785 637.103 388.395 628.008 391.202 621.856C393.216 617.445 396.86 613.287 397.033 608.229C397.266 601.417 397 594.49 397.008 587.666C397.018 579.732 397.308 571.647 396.706 563.737C396.336 558.873 394.965 554.086 394.479 549.23C394.024 544.672 394.3 539.974 394.109 535.389C393.876 529.805 393.23 524.239 393.12 518.652C393.032 514.179 392.772 509.473 393.136 505.022C393.628 499.009 394.795 493.155 394.789 487.09C394.784 481.058 394.504 474.687 393.859 468.686C393.426 464.655 392.693 460.668 392.532 456.608C392.319 451.238 393.215 445.763 393.471 440.391C393.72 435.152 393.486 429.895 393.673 424.652C393.943 417.049 395.882 409.645 396.051 402.108C396.161 397.243 395.648 392.358 395.559 387.492C395.298 373.115 394.689 358.703 394.737 344.319C394.759 337.636 394.977 330.65 395.568 323.995C395.885 320.435 396.7 316.85 396.677 313.27C396.652 309.381 394.85 305.661 394.919 301.689C394.993 297.363 396.275 293.204 396.057 288.824C395.756 282.776 390.444 269.233 390.838 266.236ZM579.803 497.969L581.536 498.675C584.41 492.751 586.68 486.524 589.053 480.387L588.05 479.388L588.454 479.817C587.827 479.593 588.122 479.777 587.611 479.198C586.323 481.726 585.586 484.488 584.506 487.109C583.216 490.239 581.581 493.316 580.493 496.506C580.314 497.031 580.071 497.485 579.803 497.969Z"/>
	<path fill="#00FB5F" d="M408.957 656.938C409.549 656.681 410.104 656.45 410.718 656.251C411.383 656.035 410.971 656.212 411.441 655.905C413.138 654.793 416.688 655.116 418.569 655.581C419.88 655.905 421.021 656.637 422.161 657.336C417.754 657.73 413.349 657.324 408.957 656.938Z"/>
	<path fill="#0BCEEA" fill-opacity="0.98823529" d="M579.803 497.969C580.071 497.485 580.314 497.031 580.493 496.506C581.581 493.316 583.216 490.239 584.506 487.109C585.586 484.488 586.323 481.726 587.611 479.198C588.122 479.777 587.827 479.593 588.454 479.817L588.05 479.388L589.053 480.387C586.68 486.524 584.41 492.751 581.536 498.675L579.803 497.969Z"/>
	<path fill="#0BCEEA" d="M579.803 497.969L581.536 498.675C576.364 510.288 570.832 521.719 564.055 532.505C563.097 532.156 562.509 532.152 562.038 531.219Q562.892 527.618 564.445 524.258C566.024 520.881 568.321 517.883 570.078 514.596C572.332 510.38 574.076 505.864 576.435 501.709C576.947 500.808 577.383 500.177 578.23 499.564C578.741 499.193 579.111 498.948 579.487 498.426C579.595 498.276 579.698 498.121 579.803 497.969Z"/>
	<path fill="#00FE00" d="M371.433 710.852C368.755 711.816 357.963 709.608 354.327 709.491C349.982 709.351 345.487 709.671 341.221 710.518C325.136 713.716 310.903 722.501 295.475 727.772C263.117 738.826 234.504 733.225 204.642 718.555C188.376 710.564 173.786 699.661 159.291 688.882C101.221 645.701 53.5209 592.641 29.9167 523.051Q25.1247 508.451 21.8124 493.446Q18.5 478.441 16.7003 463.181C11.2426 419.686 13.1426 383.209 21.4857 340.156C25.8157 317.811 31.5313 295.817 41.6698 275.329C55.001 248.389 74.5099 226.747 101.928 213.795C108.778 210.56 115.839 207.543 123.17 205.568C128.658 204.089 134.384 203.385 140.018 202.694C165.232 199.602 189.116 202.542 213.452 209.562C220.706 211.654 227.783 214.488 234.823 217.202Q253.98 224.682 272.888 232.771C280.692 236.082 288.303 240.057 296.452 242.46C301.082 243.826 307.466 245.441 312.186 243.698C314.533 242.831 316.239 241.076 317.208 238.786C319.215 234.042 318.742 227.716 318.46 222.683C317.852 211.827 315.815 200.723 314.412 189.916Q311.655 168.617 308.203 147.419C306.647 137.434 305.208 127.416 303.207 117.509Q301.059 107.089 297.846 96.9465Q291.983 79.059 283.917 62.0508C280.551 54.9753 276.421 47.7797 273.691 40.4543C273.221 39.1928 272.851 38.0198 273.532 36.7594C275.512 33.0957 284.424 30.6741 288.139 29.6931C293.131 28.3751 298.576 28.4496 303.124 31.1167C307.948 33.9455 310.884 38.9549 312.983 43.9769C317.504 54.7913 319.002 66.8369 320.66 78.3702Q322.443 90.3627 323.682 102.424Q324.921 114.484 325.613 126.589Q326.306 138.693 326.451 150.817Q326.596 162.94 326.193 175.058C325.739 191.038 324.305 206.922 324.281 222.932C324.274 227.596 323.902 233.361 325.217 237.844C326.357 241.73 328.628 243.636 332.018 245.533C344.948 245.881 358.846 238.557 370.3 233.157C377.724 228.737 386.877 225.808 394.975 222.805C411.191 216.792 428.856 209.698 445.968 207.058C446.67 207.444 446.88 207.657 447.225 208.38C446.425 210.6 443.486 211.712 441.52 212.634C440.318 213.198 439.354 213.374 438.796 214.702C437.86 216.925 437.645 219.441 436.732 221.658C436.156 223.055 435.118 223.642 435.039 225.236C435.659 226.448 436.46 227.082 437.507 227.931C438.541 228.501 439.585 228.422 440.529 229.149C421.847 234.723 405.142 244.465 390.022 256.641C385 260.686 379.993 264.611 376.72 270.274C381.707 269.436 386.146 268.045 390.838 266.236C390.444 269.233 395.756 282.776 396.057 288.824C396.275 293.204 394.993 297.363 394.919 301.689C394.85 305.661 396.652 309.381 396.677 313.27C396.7 316.85 395.885 320.435 395.568 323.995C394.977 330.65 394.759 337.636 394.737 344.319C394.689 358.703 395.298 373.115 395.559 387.492C395.648 392.358 396.161 397.243 396.051 402.108C395.882 409.645 393.943 417.049 393.673 424.652C393.486 429.895 393.72 435.152 393.471 440.391C393.215 445.763 392.319 451.238 392.532 456.608C392.693 460.668 393.426 464.655 393.859 468.686C394.504 474.687 394.784 481.058 394.789 487.09C394.795 493.155 393.628 499.009 393.136 505.022C392.772 509.473 393.032 514.179 393.12 518.652C393.23 524.239 393.876 529.805 394.109 535.389C394.3 539.974 394.024 544.672 394.479 549.23C394.965 554.086 396.336 558.873 396.706 563.737C397.308 571.647 397.018 579.732 397.008 587.666C397 594.49 397.266 601.417 397.033 608.229C396.86 613.287 393.216 617.445 391.202 621.856C388.395 628.008 387.785 637.103 388.546 643.777C389.61 645.322 390.504 646.282 392.026 647.41L394.317 649.132L394.064 649.357L393.214 649.093L392.855 649.417C393.076 650.519 394.397 652.092 395.286 652.822C395.85 653.284 396.688 653.324 397.376 653.451C398.982 653.747 400.531 654.329 402.127 654.691L402.908 655.796C393.25 654.294 384.042 648.598 374.87 645.304Q373.871 644.926 372.862 644.573Q371.853 644.221 370.836 643.893Q369.819 643.566 368.794 643.264Q367.769 642.962 366.737 642.686Q365.705 642.41 364.666 642.16Q363.628 641.909 362.583 641.685Q361.538 641.461 360.488 641.263Q359.438 641.065 358.384 640.893Q357.329 640.721 356.271 640.576Q355.212 640.43 354.15 640.312Q353.088 640.193 352.024 640.1Q350.959 640.008 349.893 639.943Q348.827 639.877 347.759 639.838Q346.691 639.799 345.623 639.787Q344.554 639.774 343.486 639.789Q342.417 639.803 341.35 639.844Q340.282 639.885 339.216 639.953Q338.149 640.021 337.085 640.115Q336.021 640.21 334.959 640.331Q333.898 640.452 332.839 640.599Q331.781 640.747 330.727 640.921Q329.673 641.094 328.623 641.295Q327.574 641.495 326.529 641.721Q325.485 641.948 324.447 642.2Q323.409 642.452 322.377 642.73Q321.346 643.009 320.321 643.313Q319.297 643.617 318.28 643.946Q317.264 644.275 316.256 644.63Q315.248 644.985 314.25 645.365Q313.251 645.745 312.262 646.149Q311.273 646.554 310.295 646.983Q309.316 647.412 308.349 647.866C301.136 651.194 294.172 655.039 286.62 657.592C267.693 663.991 246.79 660.73 228.412 654.021C179.013 635.988 138.196 586.439 116.61 539.95C96.6487 496.959 84.4838 448.248 91.2219 400.753C92.6818 390.463 94.8068 380.282 98.3976 370.511C108.415 343.254 127.826 318.286 154.6 305.985C184.03 292.464 214.504 292.886 244.561 304.077C267.464 312.605 286.981 328.166 297.308 350.725C306.514 370.836 305.229 392.375 297.546 412.684C290.177 432.164 279.535 446.05 260.152 454.662C246.489 460.732 230.622 462.397 216.513 456.875C206.65 453.015 197.354 445.715 193.038 435.839C188.53 425.523 188.702 413.207 192.807 402.807C195.196 396.755 198.71 392.156 203.658 387.974C202.843 399.753 200.784 414.163 209.136 423.849C214.565 430.145 223.706 434.38 231.948 434.964C242.518 435.712 252.12 430.896 259.863 424.04C270.207 414.883 279.151 401.961 280.003 387.795C280.741 375.526 275.947 362.753 267.789 353.637C254.133 338.374 233.682 329.326 213.367 328.301C189.529 327.098 168.157 333.924 150.392 350.141C133.173 365.86 123.961 387.092 123.035 410.287C122.004 436.111 132.088 459.152 149.44 477.861C169.172 499.136 201.712 515.747 230.86 516.749C236.946 516.959 243.249 517.252 249.306 516.661C269.492 514.692 290.275 505.701 305.027 491.767C332.271 466.033 346.375 426.384 347.223 389.473C348.197 347.071 331.825 303.176 302.425 272.502C293.335 263.018 282.385 253.677 271.119 246.876C247.915 232.87 216.947 224.782 189.95 224.22C156.504 223.524 118.584 230.435 93.6895 254.542C86.6004 261.407 80.7534 269.551 75.081 277.588C50.7365 312.08 36.0057 352.419 35.488 394.913C35.1753 420.583 38.2964 445.16 43.9218 470.181C57.0465 528.559 82.5193 579.502 124.497 622.452C132.892 631.042 141.363 639.588 150.489 647.411Q164.587 659.342 179.708 669.947Q194.829 680.552 210.848 689.744C219.324 694.716 227.882 699.776 237.141 703.173Q239.813 704.169 242.56 704.931Q245.308 705.693 248.111 706.215Q250.914 706.737 253.752 707.015Q256.59 707.292 259.441 707.324C271.652 707.421 282.832 704.034 293.207 697.638C299.93 693.494 305.64 688.015 311.982 683.353C328.94 670.889 347.102 667.418 366.693 676.067C376.762 681.146 385.9 686.502 395.111 693.044C397.745 694.915 405.896 701.184 408.659 701.622L408.317 701.87C406.747 702.987 405.546 703.687 403.57 703.307Q402.179 703.035 400.863 702.507C400.403 702.32 400.645 702.377 400.023 702.443L399.882 702.298C398.77 703.706 398.638 705.032 398.871 706.794C399.563 712.018 405.556 724.802 409.899 727.764C415.33 731.469 416.434 730.242 421.233 736.334L421.28 737.102C420.399 737.243 419.78 737.192 418.907 736.968C406.14 733.701 394.857 724.624 383.67 718.141C380.48 716.292 373.223 713.839 371.433 710.852ZM370.3 233.157C371.388 234.353 373.017 236.56 372.999 238.28C372.989 239.199 372.696 239.749 372.036 240.376C369.305 242.97 361.916 241.75 361.144 245.889C361.544 246.703 361.789 247 362.681 247.291C365.08 248.077 367.839 247.377 370.139 248.456C370.61 249.537 370.084 250.557 369.66 251.627C367.492 257.102 362.324 261.536 364.858 267.947C365.58 269.772 366.694 271.422 367.772 273.051Q365.511 275.227 363.208 277.357C362.611 287.931 365.032 324.616 362.161 331.963L362.511 332.334C364.223 334.112 369.43 336.806 370.339 338.362C371.055 339.588 370.728 343.743 370.721 345.153C370.682 353.923 371.305 362.695 371.177 371.449C371.033 381.234 370.073 390.97 370.061 400.778C370.052 407.607 370.605 414.444 370.544 421.263C370.507 425.429 369.884 429.595 369.687 433.758C369.539 436.868 369.813 440.597 369.03 443.606C368.281 446.483 366.114 448.698 364.209 450.873C364.232 454.541 364.154 458.168 363.93 461.829C363.731 465.083 363.068 469.136 363.545 472.337C363.665 472.382 363.786 472.422 363.904 472.472C364.46 472.704 364.26 472.603 364.73 473.09C366.063 482.04 364.377 491.254 365.787 500.183C367.034 508.082 372.055 514.994 372.515 522.953C372.844 528.641 371.471 534.332 371.632 540.011C371.786 545.466 373.792 550.647 373.646 556.14L372.779 584.733C372.584 589.981 371.537 596.295 372.558 601.437C373.531 606.332 377.483 610.447 379.167 615.185C378.324 618.074 376.71 620.925 376.186 623.843C375.093 629.935 376.739 632.312 373.88 638.775C374.371 640.961 374.675 643.072 374.87 645.304C384.042 648.598 393.25 654.294 402.908 655.796L402.127 654.691C400.531 654.329 398.982 653.747 397.376 653.451C396.688 653.324 395.85 653.284 395.286 652.822C394.397 652.092 393.076 650.519 392.855 649.417L393.214 649.093L394.064 649.357L394.317 649.132L392.026 647.41C390.504 646.282 389.61 645.322 388.546 643.777C387.785 637.103 388.395 628.008 391.202 621.856C393.216 617.445 396.86 613.287 397.033 608.229C397.266 601.417 397 594.49 397.008 587.666C397.018 579.732 397.308 571.647 396.706 563.737C396.336 558.873 394.965 554.086 394.479 549.23C394.024 544.672 394.3 539.974 394.109 535.389C393.876 529.805 393.23 524.239 393.12 518.652C393.032 514.179 392.772 509.473 393.136 505.022C393.628 499.009 394.795 493.155 394.789 487.09C394.784 481.058 394.504 474.687 393.859 468.686C393.426 464.655 392.693 460.668 392.532 456.608C392.319 451.238 393.215 445.763 393.471 440.391C393.72 435.152 393.486 429.895 393.673 424.652C393.943 417.049 395.882 409.645 396.051 402.108C396.161 397.243 395.648 392.358 395.559 387.492C395.298 373.115 394.689 358.703 394.737 344.319C394.759 337.636 394.977 330.65 395.568 323.995C395.885 320.435 396.7 316.85 396.677 313.27C396.652 309.381 394.85 305.661 394.919 301.689C394.993 297.363 396.275 293.204 396.057 288.824C395.756 282.776 390.444 269.233 390.838 266.236C386.146 268.045 381.707 269.436 376.72 270.274C379.993 264.611 385 260.686 390.022 256.641C405.142 244.465 421.847 234.723 440.529 229.149C439.585 228.422 438.541 228.501 437.507 227.931C436.46 227.082 435.659 226.448 435.039 225.236C435.118 223.642 436.156 223.055 436.732 221.658C437.645 219.441 437.86 216.925 438.796 214.702C439.354 213.374 440.318 213.198 441.52 212.634C443.486 211.712 446.425 210.6 447.225 208.38C446.88 207.657 446.67 207.444 445.968 207.058C428.856 209.698 411.191 216.792 394.975 222.805C386.877 225.808 377.724 228.737 370.3 233.157ZM366.693 676.067C364.778 679.483 363.919 682.546 364.122 686.484C367.123 689.559 372.834 694.848 377.037 695.743C377.165 701.194 376.119 706.245 375.795 711.638C375.662 711.542 375.523 711.455 375.397 711.351C373.596 709.86 373.599 703.169 372.025 703.156C371.916 703.784 371.987 704.124 372.14 704.719C372.708 706.929 371.362 708.711 371.433 710.852C373.223 713.839 380.48 716.292 383.67 718.141C394.857 724.624 406.14 733.701 418.907 736.968C419.78 737.192 420.399 737.243 421.28 737.102L421.233 736.334C416.434 730.242 415.33 731.469 409.899 727.764C405.556 724.802 399.563 712.018 398.871 706.794C398.638 705.032 398.77 703.706 399.882 702.298L400.023 702.443C400.645 702.377 400.403 702.32 400.863 702.507Q402.179 703.035 403.57 703.307C405.546 703.687 406.747 702.987 408.317 701.87L408.659 701.622C405.896 701.184 397.745 694.915 395.111 693.044C385.9 686.502 376.762 681.146 366.693 676.067Z"/>
	<path fill="#00FB5F" fill-opacity="0.98823529" d="M366.693 676.067C376.762 681.146 385.9 686.502 395.111 693.044C397.745 694.915 405.896 701.184 408.659 701.622L408.317 701.87C406.747 702.987 405.546 703.687 403.57 703.307Q402.179 703.035 400.863 702.507C400.403 702.32 400.645 702.377 400.023 702.443L399.882 702.298C398.77 703.706 398.638 705.032 398.871 706.794C399.563 712.018 405.556 724.802 409.899 727.764C415.33 731.469 416.434 730.242 421.233 736.334L421.28 737.102C420.399 737.243 419.78 737.192 418.907 736.968C406.14 733.701 394.857 724.624 383.67 718.141C380.48 716.292 373.223 713.839 371.433 710.852C371.362 708.711 372.708 706.929 372.14 704.719C371.987 704.124 371.916 703.784 372.025 703.156C373.599 703.169 373.596 709.86 375.397 711.351C375.523 711.455 375.662 711.542 375.795 711.638C376.119 706.245 377.165 701.194 377.037 695.743C372.834 694.848 367.123 689.559 364.122 686.484C363.919 682.546 364.778 679.483 366.693 676.067Z"/>
	<defs>
		<linearGradient id="gradient_4" gradientUnits="userSpaceOnUse" x1="360.70401" y1="429.62961" x2="444.03473" y2="430.18661">
			<stop offset="0" stop-color="#00FF3F" stop-opacity="0.98823529"/>
			<stop offset="1" stop-color="#00FCB2" stop-opacity="0.98823529"/>
		</linearGradient>
	</defs>
	<path fill="url(#gradient_4)" d="M370.3 233.157C377.724 228.737 386.877 225.808 394.975 222.805C411.191 216.792 428.856 209.698 445.968 207.058C446.67 207.444 446.88 207.657 447.225 208.38C446.425 210.6 443.486 211.712 441.52 212.634C440.318 213.198 439.354 213.374 438.796 214.702C437.86 216.925 437.645 219.441 436.732 221.658C436.156 223.055 435.118 223.642 435.039 225.236C435.659 226.448 436.46 227.082 437.507 227.931C438.541 228.501 439.585 228.422 440.529 229.149C421.847 234.723 405.142 244.465 390.022 256.641C385 260.686 379.993 264.611 376.72 270.274C381.707 269.436 386.146 268.045 390.838 266.236C390.444 269.233 395.756 282.776 396.057 288.824C396.275 293.204 394.993 297.363 394.919 301.689C394.85 305.661 396.652 309.381 396.677 313.27C396.7 316.85 395.885 320.435 395.568 323.995C394.977 330.65 394.759 337.636 394.737 344.319C394.689 358.703 395.298 373.115 395.559 387.492C395.648 392.358 396.161 397.243 396.051 402.108C395.882 409.645 393.943 417.049 393.673 424.652C393.486 429.895 393.72 435.152 393.471 440.391C393.215 445.763 392.319 451.238 392.532 456.608C392.693 460.668 393.426 464.655 393.859 468.686C394.504 474.687 394.784 481.058 394.789 487.09C394.795 493.155 393.628 499.009 393.136 505.022C392.772 509.473 393.032 514.179 393.12 518.652C393.23 524.239 393.876 529.805 394.109 535.389C394.3 539.974 394.024 544.672 394.479 549.23C394.965 554.086 396.336 558.873 396.706 563.737C397.308 571.647 397.018 579.732 397.008 587.666C397 594.49 397.266 601.417 397.033 608.229C396.86 613.287 393.216 617.445 391.202 621.856C388.395 628.008 387.785 637.103 388.546 643.777C389.61 645.322 390.504 646.282 392.026 647.41L394.317 649.132L394.064 649.357L393.214 649.093L392.855 649.417C393.076 650.519 394.397 652.092 395.286 652.822C395.85 653.284 396.688 653.324 397.376 653.451C398.982 653.747 400.531 654.329 402.127 654.691L402.908 655.796C393.25 654.294 384.042 648.598 374.87 645.304C374.675 643.072 374.371 640.961 373.88 638.775C376.739 632.312 375.093 629.935 376.186 623.843C376.71 620.925 378.324 618.074 379.167 615.185C377.483 610.447 373.531 606.332 372.558 601.437C371.537 596.295 372.584 589.981 372.779 584.733L373.646 556.14C373.792 550.647 371.786 545.466 371.632 540.011C371.471 534.332 372.844 528.641 372.515 522.953C372.055 514.994 367.034 508.082 365.787 500.183C364.377 491.254 366.063 482.04 364.73 473.09C364.26 472.603 364.46 472.704 363.904 472.472C363.786 472.422 363.665 472.382 363.545 472.337C363.068 469.136 363.731 465.083 363.93 461.829C364.154 458.168 364.232 454.541 364.209 450.873C366.114 448.698 368.281 446.483 369.03 443.606C369.813 440.597 369.539 436.868 369.687 433.758C369.884 429.595 370.507 425.429 370.544 421.263C370.605 414.444 370.052 407.607 370.061 400.778C370.073 390.97 371.033 381.234 371.177 371.449C371.305 362.695 370.682 353.923 370.721 345.153C370.728 343.743 371.055 339.588 370.339 338.362C369.43 336.806 364.223 334.112 362.511 332.334L362.161 331.963C365.032 324.616 362.611 287.931 363.208 277.357Q365.511 275.227 367.772 273.051C366.694 271.422 365.58 269.772 364.858 267.947C362.324 261.536 367.492 257.102 369.66 251.627C370.084 250.557 370.61 249.537 370.139 248.456C367.839 247.377 365.08 248.077 362.681 247.291C361.789 247 361.544 246.703 361.144 245.889C361.916 241.75 369.305 242.97 372.036 240.376C372.696 239.749 372.989 239.199 372.999 238.28C373.017 236.56 371.388 234.353 370.3 233.157Z"/>
</svg>
